<svg width="28" height="28" viewBox="0 0 28 28" fill="none" xmlns="http://www.w3.org/2000/svg">
<mask id="mask0_1731_606" style="mask-type:alpha" maskUnits="userSpaceOnUse" x="0" y="0" width="28" height="28">
<rect width="28" height="28" fill="#D9D9D9"/>
</mask>
<g mask="url(#mask0_1731_606)">
<path d="M8.6625 11.0542L13.0083 3.9667C13.125 3.77226 13.2708 3.63129 13.4458 3.54379C13.6208 3.45629 13.8056 3.41254 14 3.41254C14.1944 3.41254 14.3792 3.45629 14.5542 3.54379C14.7292 3.63129 14.875 3.77226 14.9917 3.9667L19.3375 11.0542C19.4542 11.2486 19.5125 11.4528 19.5125 11.6667C19.5125 11.8806 19.4639 12.075 19.3667 12.25C19.2694 12.425 19.1333 12.566 18.9583 12.673C18.7833 12.7799 18.5792 12.8334 18.3458 12.8334H9.65417C9.42083 12.8334 9.21667 12.7799 9.04167 12.673C8.86667 12.566 8.73055 12.425 8.63333 12.25C8.53611 12.075 8.4875 11.8806 8.4875 11.6667C8.4875 11.4528 8.54583 11.2486 8.6625 11.0542ZM20.4167 25.6667C18.9583 25.6667 17.7187 25.1563 16.6979 24.1355C15.6771 23.1146 15.1667 21.875 15.1667 20.4167C15.1667 18.9584 15.6771 17.7188 16.6979 16.698C17.7187 15.6771 18.9583 15.1667 20.4167 15.1667C21.875 15.1667 23.1146 15.6771 24.1354 16.698C25.1562 17.7188 25.6667 18.9584 25.6667 20.4167C25.6667 21.875 25.1562 23.1146 24.1354 24.1355C23.1146 25.1563 21.875 25.6667 20.4167 25.6667ZM3.5 23.9167V16.9167C3.5 16.5861 3.61181 16.3091 3.83542 16.0855C4.05903 15.8618 4.33611 15.75 4.66667 15.75H11.6667C11.9972 15.75 12.2743 15.8618 12.4979 16.0855C12.7215 16.3091 12.8333 16.5861 12.8333 16.9167V23.9167C12.8333 24.2473 12.7215 24.5243 12.4979 24.748C12.2743 24.9716 11.9972 25.0834 11.6667 25.0834H4.66667C4.33611 25.0834 4.05903 24.9716 3.83542 24.748C3.61181 24.5243 3.5 24.2473 3.5 23.9167ZM20.4167 23.3334C21.2333 23.3334 21.9236 23.0514 22.4875 22.4875C23.0514 21.9236 23.3333 21.2334 23.3333 20.4167C23.3333 19.6 23.0514 18.9098 22.4875 18.3459C21.9236 17.782 21.2333 17.5 20.4167 17.5C19.6 17.5 18.9097 17.782 18.3458 18.3459C17.7819 18.9098 17.5 19.6 17.5 20.4167C17.5 21.2334 17.7819 21.9236 18.3458 22.4875C18.9097 23.0514 19.6 23.3334 20.4167 23.3334ZM5.83333 22.75H10.5V18.0834H5.83333V22.75ZM11.725 10.5H16.275L14 6.82504L11.725 10.5Z" fill="#0060B3"/>
</g>
</svg>
