<svg width="21" height="20" viewBox="0 0 21 20" fill="none" xmlns="http://www.w3.org/2000/svg">
<path d="M11.225 9.825V6.225C11.225 5.94167 11.1292 5.70417 10.9375 5.5125C10.7458 5.32083 10.5083 5.225 10.225 5.225C9.94167 5.225 9.70417 5.32083 9.5125 5.5125C9.32083 5.70417 9.225 5.94167 9.225 6.225V10.2C9.225 10.3333 9.25 10.4625 9.3 10.5875C9.35 10.7125 9.425 10.825 9.525 10.925L12.325 13.725C12.5083 13.9083 12.7417 14 13.025 14C13.3083 14 13.5417 13.9083 13.725 13.725C13.9083 13.5417 14 13.3083 14 13.025C14 12.7417 13.9083 12.5083 13.725 12.325L11.225 9.825ZM10.225 19.225C8.975 19.225 7.80417 18.9875 6.7125 18.5125C5.62083 18.0375 4.67083 17.3958 3.8625 16.5875C3.05417 15.7792 2.4125 14.8292 1.9375 13.7375C1.4625 12.6458 1.225 11.475 1.225 10.225C1.225 8.975 1.4625 7.80417 1.9375 6.7125C2.4125 5.62083 3.05417 4.67083 3.8625 3.8625C4.67083 3.05417 5.62083 2.4125 6.7125 1.9375C7.80417 1.4625 8.975 1.225 10.225 1.225C11.475 1.225 12.6458 1.4625 13.7375 1.9375C14.8292 2.4125 15.7792 3.05417 16.5875 3.8625C17.3958 4.67083 18.0375 5.62083 18.5125 6.7125C18.9875 7.80417 19.225 8.975 19.225 10.225C19.225 11.475 18.9875 12.6458 18.5125 13.7375C18.0375 14.8292 17.3958 15.7792 16.5875 16.5875C15.7792 17.3958 14.8292 18.0375 13.7375 18.5125C12.6458 18.9875 11.475 19.225 10.225 19.225ZM0.275 4.525C0.0916667 4.34167 0 4.10833 0 3.825C0 3.54167 0.0916667 3.30833 0.275 3.125L3.125 0.275C3.30833 0.0916667 3.54167 0 3.825 0C4.10833 0 4.34167 0.0916667 4.525 0.275C4.70833 0.458333 4.8 0.691667 4.8 0.975C4.8 1.25833 4.70833 1.49167 4.525 1.675L1.675 4.525C1.49167 4.70833 1.25833 4.8 0.975 4.8C0.691667 4.8 0.458333 4.70833 0.275 4.525ZM20.175 4.525C19.9917 4.70833 19.7583 4.8 19.475 4.8C19.1917 4.8 18.9583 4.70833 18.775 4.525L15.925 1.675C15.7417 1.49167 15.65 1.25833 15.65 0.975C15.65 0.691667 15.7417 0.458333 15.925 0.275C16.1083 0.0916667 16.3417 0 16.625 0C16.9083 0 17.1417 0.0916667 17.325 0.275L20.175 3.125C20.3583 3.30833 20.45 3.54167 20.45 3.825C20.45 4.10833 20.3583 4.34167 20.175 4.525ZM10.225 17.225C12.175 17.225 13.8292 16.5458 15.1875 15.1875C16.5458 13.8292 17.225 12.175 17.225 10.225C17.225 8.275 16.5458 6.62083 15.1875 5.2625C13.8292 3.90417 12.175 3.225 10.225 3.225C8.275 3.225 6.62083 3.90417 5.2625 5.2625C3.90417 6.62083 3.225 8.275 3.225 10.225C3.225 12.175 3.90417 13.8292 5.2625 15.1875C6.62083 16.5458 8.275 17.225 10.225 17.225Z" fill="#4A5565"/>
</svg>
