<svg width="28" height="28" viewBox="0 0 28 28" fill="none" xmlns="http://www.w3.org/2000/svg">
<mask id="mask0_1731_596" style="mask-type:alpha" maskUnits="userSpaceOnUse" x="0" y="0" width="28" height="28">
<rect width="28" height="28" fill="#D9D9D9"/>
</mask>
<g mask="url(#mask0_1731_596)">
<path d="M15.1667 9.33333V4.66667C15.1667 4.33611 15.2785 4.05903 15.5021 3.83542C15.7257 3.61181 16.0028 3.5 16.3333 3.5H23.3333C23.6639 3.5 23.941 3.61181 24.1646 3.83542C24.3882 4.05903 24.5 4.33611 24.5 4.66667V9.33333C24.5 9.66389 24.3882 9.94097 24.1646 10.1646C23.941 10.3882 23.6639 10.5 23.3333 10.5H16.3333C16.0028 10.5 15.7257 10.3882 15.5021 10.1646C15.2785 9.94097 15.1667 9.66389 15.1667 9.33333ZM3.5 14V4.66667C3.5 4.33611 3.61181 4.05903 3.83542 3.83542C4.05903 3.61181 4.33611 3.5 4.66667 3.5H11.6667C11.9972 3.5 12.2743 3.61181 12.4979 3.83542C12.7215 4.05903 12.8333 4.33611 12.8333 4.66667V14C12.8333 14.3306 12.7215 14.6076 12.4979 14.8313C12.2743 15.0549 11.9972 15.1667 11.6667 15.1667H4.66667C4.33611 15.1667 4.05903 15.0549 3.83542 14.8313C3.61181 14.6076 3.5 14.3306 3.5 14ZM15.1667 23.3333V14C15.1667 13.6694 15.2785 13.3924 15.5021 13.1687C15.7257 12.9451 16.0028 12.8333 16.3333 12.8333H23.3333C23.6639 12.8333 23.941 12.9451 24.1646 13.1687C24.3882 13.3924 24.5 13.6694 24.5 14V23.3333C24.5 23.6639 24.3882 23.941 24.1646 24.1646C23.941 24.3882 23.6639 24.5 23.3333 24.5H16.3333C16.0028 24.5 15.7257 24.3882 15.5021 24.1646C15.2785 23.941 15.1667 23.6639 15.1667 23.3333ZM3.5 23.3333V18.6667C3.5 18.3361 3.61181 18.059 3.83542 17.8354C4.05903 17.6118 4.33611 17.5 4.66667 17.5H11.6667C11.9972 17.5 12.2743 17.6118 12.4979 17.8354C12.7215 18.059 12.8333 18.3361 12.8333 18.6667V23.3333C12.8333 23.6639 12.7215 23.941 12.4979 24.1646C12.2743 24.3882 11.9972 24.5 11.6667 24.5H4.66667C4.33611 24.5 4.05903 24.3882 3.83542 24.1646C3.61181 23.941 3.5 23.6639 3.5 23.3333ZM5.83333 12.8333H10.5V5.83333H5.83333V12.8333ZM17.5 22.1667H22.1667V15.1667H17.5V22.1667ZM17.5 8.16667H22.1667V5.83333H17.5V8.16667ZM5.83333 22.1667H10.5V19.8333H5.83333V22.1667Z" fill="#0060B3"/>
</g>
</svg>
