<svg width="28" height="28" viewBox="0 0 28 28" fill="none" xmlns="http://www.w3.org/2000/svg">
<mask id="mask0_1731_611" style="mask-type:alpha" maskUnits="userSpaceOnUse" x="0" y="0" width="28" height="28">
<rect width="28" height="28" fill="#D9D9D9"/>
</mask>
<g mask="url(#mask0_1731_611)">
<path d="M4.66683 23.3333C4.02516 23.3333 3.47586 23.1048 3.01891 22.6479C2.56197 22.1909 2.3335 21.6416 2.3335 21V6.99996C2.3335 6.35829 2.56197 5.80899 3.01891 5.35204C3.47586 4.8951 4.02516 4.66663 4.66683 4.66663H23.3335C23.9752 4.66663 24.5245 4.8951 24.9814 5.35204C25.4384 5.80899 25.6668 6.35829 25.6668 6.99996V21C25.6668 21.6416 25.4384 22.1909 24.9814 22.6479C24.5245 23.1048 23.9752 23.3333 23.3335 23.3333H4.66683ZM23.3335 9.33329L14.6127 14.7875C14.5154 14.8458 14.4134 14.8895 14.3064 14.9187C14.1995 14.9479 14.0974 14.9625 14.0002 14.9625C13.9029 14.9625 13.8009 14.9479 13.6939 14.9187C13.587 14.8895 13.4849 14.8458 13.3877 14.7875L4.66683 9.33329V21H23.3335V9.33329ZM14.0002 12.8333L23.3335 6.99996H4.66683L14.0002 12.8333ZM4.66683 9.62496V7.90413V7.93329V7.91871V9.62496Z" fill="#0060B3"/>
</g>
</svg>
