<svg width="28" height="28" viewBox="0 0 28 28" fill="none" xmlns="http://www.w3.org/2000/svg">
<mask id="mask0_1731_601" style="mask-type:alpha" maskUnits="userSpaceOnUse" x="0" y="0" width="28" height="28">
<rect width="28" height="28" fill="#D9D9D9"/>
</mask>
<g mask="url(#mask0_1731_601)">
<path d="M12.8333 22.6625V14.6709L5.83333 10.6167V18.6084L12.8333 22.6625ZM15.1667 22.6625L22.1667 18.6084V10.6167L15.1667 14.6709V22.6625ZM12.8333 25.3459L4.66667 20.65C4.29722 20.4362 4.01042 20.1542 3.80625 19.8042C3.60208 19.4542 3.5 19.0653 3.5 18.6375V9.36254C3.5 8.93476 3.60208 8.54587 3.80625 8.19587C4.01042 7.84587 4.29722 7.56393 4.66667 7.35004L12.8333 2.65421C13.2028 2.44032 13.5917 2.33337 14 2.33337C14.4083 2.33337 14.7972 2.44032 15.1667 2.65421L23.3333 7.35004C23.7028 7.56393 23.9896 7.84587 24.1938 8.19587C24.3979 8.54587 24.5 8.93476 24.5 9.36254V18.6375C24.5 19.0653 24.3979 19.4542 24.1938 19.8042C23.9896 20.1542 23.7028 20.4362 23.3333 20.65L15.1667 25.3459C14.7972 25.5598 14.4083 25.6667 14 25.6667C13.5917 25.6667 13.2028 25.5598 12.8333 25.3459ZM18.6667 9.94587L20.9125 8.66254L14 4.66671L11.725 5.97921L18.6667 9.94587ZM14 12.6584L16.275 11.3459L9.3625 7.35004L7.0875 8.66254L14 12.6584Z" fill="#0060B3"/>
</g>
</svg>
