<svg width="19" height="18" viewBox="0 0 19 18" fill="none" xmlns="http://www.w3.org/2000/svg">
<path d="M9.03936 10.4405L2.13936 17.2905C1.95603 17.4738 1.72686 17.5697 1.45186 17.578C1.17686 17.5863 0.939362 17.4905 0.739362 17.2905C0.556028 17.1072 0.464362 16.8738 0.464362 16.5905C0.464362 16.3072 0.556028 16.0738 0.739362 15.8905L10.2894 6.3405C9.98936 5.6405 9.9477 4.84883 10.1644 3.9655C10.381 3.08217 10.856 2.2905 11.5894 1.5905C12.4727 0.707167 13.456 0.1905 14.5394 0.0405C15.6227 -0.1095 16.506 0.157167 17.1894 0.8405C17.8727 1.52383 18.1394 2.40717 17.9894 3.4905C17.8394 4.57383 17.3227 5.55717 16.4394 6.4405C15.7394 7.17383 14.9477 7.64883 14.0644 7.8655C13.181 8.08217 12.3894 8.0405 11.6894 7.7405L10.4394 8.9905L17.3394 15.8905C17.5227 16.0738 17.6185 16.303 17.6269 16.578C17.6352 16.853 17.5394 17.0905 17.3394 17.2905C17.156 17.4738 16.9227 17.5655 16.6394 17.5655C16.356 17.5655 16.1227 17.4738 15.9394 17.2905L9.03936 10.4405ZM4.38936 9.4405L1.38936 6.4405C0.689362 5.7405 0.247695 4.85717 0.0643617 3.7905C-0.118972 2.72383 0.0893617 1.77383 0.689362 0.9405C0.872695 0.6905 1.11853 0.548833 1.42686 0.5155C1.73519 0.482167 1.9977 0.582167 2.21436 0.8155L7.58936 6.2405L4.38936 9.4405Z" fill="#4A5565"/>
</svg>
