<svg width="33" height="31" viewBox="0 0 33 31" fill="none" xmlns="http://www.w3.org/2000/svg">
<path d="M14.5979 1.8541C15.1966 0.0114833 17.8034 0.011479 18.4021 1.8541L20.7658 9.12868C21.0335 9.95272 21.8014 10.5106 22.6679 10.5106H30.3168C32.2543 10.5106 33.0598 12.9899 31.4924 14.1287L25.3043 18.6246C24.6033 19.1339 24.31 20.0366 24.5777 20.8607L26.9414 28.1353C27.5401 29.9779 25.4311 31.5101 23.8637 30.3713L17.6756 25.8754C16.9746 25.3661 16.0254 25.3661 15.3244 25.8754L9.13631 30.3713C7.56888 31.5101 5.45992 29.9779 6.05862 28.1353L8.42228 20.8607C8.69002 20.0366 8.39671 19.1339 7.69573 18.6246L1.50761 14.1287C-0.0598154 12.9899 0.745734 10.5106 2.68318 10.5106H10.3321C11.1986 10.5106 11.9665 9.95272 12.2342 9.12868L14.5979 1.8541Z" fill="#EEC44C"/>
</svg>
